first trial
nRows=39
nColumns=38

# SIMM Motion File Header:
name Sujet_04_velo_80.mvnx
datacolumns 38
datarows 39
otherdata 1
range 7.7830 8.4160
endheader
time pelvis_tilt  pelvis_list  pelvis_rotation  pelvis_tx  pelvis_ty  pelvis_tz  hip_flexion_r  hip_adduction_r  hip_rotation_r  knee_angle_r  ankle_angle_r  subtalar_angle_r  mtp_angle_r  hip_flexion_l  hip_adduction_l  hip_rotation_l  knee_angle_l  ankle_angle_l  subtalar_angle_l  mtp_angle_l  lumbar_extension  lumbar_bending  lumbar_rotation  arm_flex_r  arm_add_r  arm_rot_r  elbow_flex_r  pro_sup_r  wrist_flex_r  wrist_dev_r  arm_flex_l  arm_add_l  arm_rot_l  elbow_flex_l  pro_sup_l  wrist_flex_l  wrist_dev_l
7.7830	-18.8570	8.2922	-41.4345	0.0000	1.2500	-0.0000	58.5636	-11.8722	5.6885	78.6070	10.3280	6.6249	0.0000	77.0047	-3.4258	-11.5680	76.4543	8.3748	8.4684	-0.0000	-16.5917	0.6444	-2.3323	76.1254	-7.9061	31.7006	28.9894	58.1724	-32.0361	-16.1694	77.1132	9.6989	23.6281	15.4748	60.5202	-26.5718	-20.2587	
7.8000	-18.7331	7.9438	-41.5188	0.0000	1.2500	-0.0000	60.7501	-11.7564	6.1637	83.1549	11.0724	6.5602	-0.0000	74.1642	-3.3699	-11.9745	71.9248	6.7542	8.8962	0.0000	-16.6454	0.8207	-2.2531	76.3790	-7.7980	31.6332	28.6619	58.4009	-32.1323	-16.2246	77.0894	9.7066	23.3741	15.2880	60.7390	-26.6206	-20.3131	
7.8160	-18.6913	7.5682	-41.6172	0.0000	1.2500	-0.0000	63.1334	-11.7726	6.8079	87.3784	11.6329	6.3861	0.0000	71.1270	-3.2472	-12.4392	67.2864	5.0634	9.4109	-0.0000	-16.6748	1.0058	-2.1736	76.6439	-7.6905	31.6350	28.3142	58.6278	-32.2837	-16.3439	77.1487	9.6597	23.1627	15.1179	60.9136	-26.6837	-20.4006	
7.8330	-18.6983	7.1731	-41.7480	0.0000	1.2500	-0.0000	65.6763	-11.8400	7.5418	91.3538	12.0658	6.1217	0.0000	67.9141	-3.0849	-12.9266	62.6017	3.2925	9.9407	0.0000	-16.6876	1.1917	-2.0868	76.9134	-7.5830	31.6789	27.9538	58.8518	-32.4695	-16.5036	77.2450	9.5836	22.9822	14.9430	61.0613	-26.7618	-20.5139	
7.8490	-18.7066	6.8050	-41.9902	0.0000	1.2500	-0.0000	68.2761	-11.8857	8.2321	94.9626	12.4307	5.8083	-0.0000	64.7213	-2.9321	-13.2949	58.2564	1.7002	10.2946	0.0000	-16.6968	1.3408	-1.9760	77.1562	-7.4915	31.7636	27.6479	59.0303	-32.6358	-16.6546	77.3034	9.5035	22.8943	14.7603	61.1239	-26.8646	-20.6524	
7.8660	-18.7066	6.4665	-42.4018	0.0000	1.2500	-0.0000	70.9530	-11.8833	8.8341	98.2119	12.7300	5.4348	-0.0000	61.5233	-2.7996	-13.5218	54.2562	0.3723	10.3674	0.0000	-16.7013	1.4395	-1.8279	77.3613	-7.4231	31.9167	27.4156	59.1273	-32.7679	-16.7876	77.2841	9.4260	22.9708	14.5606	61.0488	-27.0193	-20.8353	
7.8830	-18.7061	6.1551	-42.9247	0.0000	1.2500	-0.0000	73.6845	-11.8522	9.3761	101.0770	12.9644	5.0249	0.0000	58.3432	-2.6762	-13.6466	50.5970	-0.7778	10.2758	0.0000	-16.7024	1.5017	-1.6559	77.5397	-7.3705	32.1107	27.2382	59.1786	-32.8795	-16.9113	77.2267	9.3448	23.1397	14.3503	60.8874	-27.1998	-21.0448	
7.8990	-18.6848	5.9109	-43.4628	0.0000	1.2500	-0.0000	76.3013	-11.7971	9.8359	103.3738	13.1991	4.6780	0.0000	55.4466	-2.5921	-13.6192	47.6554	-1.7544	10.1608	0.0000	-16.7172	1.5305	-1.4845	77.6930	-7.3285	32.2622	27.1248	59.2490	-32.9578	-17.0029	77.1766	9.2652	23.2460	14.1517	60.7389	-27.3352	-21.2243	
7.9160	-18.6229	5.7526	-44.0543	0.0000	1.2500	-0.0000	78.8145	-11.6975	10.2328	105.0719	13.4351	4.4627	0.0000	52.8515	-2.5818	-13.3347	45.5284	-2.5646	10.0333	-0.0000	-16.7579	1.5085	-1.3046	77.8230	-7.3002	32.3505	27.1002	59.3628	-32.9904	-17.0480	77.1505	9.1875	23.2205	13.9577	60.6366	-27.3916	-21.3543	
7.9330	-18.5420	5.6621	-44.6607	0.0000	1.2500	-0.0000	81.2107	-11.5763	10.5465	106.1916	13.6770	4.3158	-0.0000	50.5353	-2.6254	-12.8951	44.1195	-3.2024	9.8754	0.0000	-16.8116	1.4527	-1.1253	77.9282	-7.2827	32.3965	27.1391	59.4954	-32.9897	-17.0611	77.1315	9.1117	23.1326	13.7770	60.5485	-27.4018	-21.4531	
7.9490	-18.4846	5.6257	-45.0716	0.0000	1.2500	-0.0000	83.2877	-11.5219	10.7252	106.6285	13.9942	4.1353	0.0000	48.7059	-2.6773	-12.5438	43.5225	-3.6525	9.7782	0.0000	-16.8573	1.4174	-0.9977	78.0046	-7.2618	32.3782	27.1757	59.6385	-32.9797	-17.0635	77.1148	9.0429	23.0360	13.6564	60.4763	-27.3933	-21.5199	
7.9660	-18.4681	5.6626	-45.1797	0.0000	1.2500	-0.0000	85.0351	-11.6097	10.7269	106.3234	14.4364	3.8530	-0.0000	47.4515	-2.7064	-12.3202	43.8154	-3.9257	9.7763	-0.0000	-16.8891	1.4228	-0.9470	78.0399	-7.2322	32.2523	27.1989	59.8194	-32.9595	-17.0548	77.0950	8.9787	22.9257	13.6272	60.4344	-27.3610	-21.5435	
7.9830	-18.4759	5.7522	-45.0926	0.0000	1.2500	-0.0000	86.4689	-11.7859	10.6288	105.3425	14.9520	3.5297	-0.0000	46.6879	-2.7473	-12.1672	44.9231	-4.0092	9.8285	0.0000	-16.9127	1.4489	-0.9479	78.0470	-7.1994	32.0620	27.2202	60.0109	-32.9301	-17.0352	77.0774	8.9217	22.8067	13.6586	60.4088	-27.3098	-21.5346	
7.9990	-18.4991	5.8187	-44.9240	0.0000	1.2500	-0.0000	87.4271	-11.9503	10.5627	103.7696	15.4572	3.2498	0.0000	46.3663	-2.8467	-12.1801	46.7136	-3.8523	9.9144	0.0000	-16.9247	1.4898	-0.9752	78.0590	-7.1648	31.9160	27.2074	60.1221	-32.9175	-17.0271	77.0742	8.8847	22.7480	13.7038	60.3591	-27.2826	-21.5254	
8.0160	-18.5520	5.8119	-44.6752	0.0000	1.2500	-0.0000	87.8573	-12.0764	10.6209	101.5615	15.9889	2.9625	0.0000	46.5152	-3.0352	-12.5032	49.2213	-3.3428	10.0330	0.0000	-16.9187	1.5627	-1.0281	78.1117	-7.1223	31.8633	27.1214	60.1103	-32.9374	-17.0445	77.0947	8.8771	22.8131	13.7632	60.2328	-27.3024	-21.5257	
8.0330	-18.6206	5.7823	-44.3448	0.0000	1.2500	-0.0000	87.8100	-12.1897	10.7041	98.7549	16.5134	2.6922	0.0000	47.1038	-3.2808	-12.9925	52.4040	-2.5930	10.1858	0.0000	-16.9010	1.6506	-1.1073	78.1691	-7.0784	31.8547	27.0014	60.0179	-32.9741	-17.0734	77.1298	8.8894	22.9386	13.8362	60.0824	-27.3462	-21.5257	
8.0490	-18.6537	5.8037	-44.0414	0.0000	1.2500	-0.0000	87.2769	-12.2637	10.6463	95.5578	16.8428	2.6365	0.0000	47.9959	-3.5342	-13.3132	56.0228	-1.8898	10.3581	0.0000	-16.8875	1.6953	-1.1895	78.1572	-7.0534	31.8514	26.9336	59.8833	-33.0071	-17.0934	77.1640	8.9061	23.0034	13.8751	60.0243	-27.3876	-21.5289	
8.0660	-18.6253	5.8955	-43.8448	0.0000	1.2500	-0.0000	86.2104	-12.2472	10.4015	91.9995	16.9448	2.9617	-0.0000	49.1709	-3.8111	-13.3381	60.1316	-1.3061	10.5535	-0.0000	-16.8877	1.6640	-1.2595	78.0337	-7.0541	31.8457	26.9660	59.7041	-33.0253	-17.0924	77.2059	8.9024	22.9336	13.8631	60.1201	-27.4196	-21.5377	
8.0830	-18.5608	6.0376	-43.6753	0.0000	1.2500	-0.0000	84.6595	-12.1833	10.0136	88.0791	16.8482	3.4923	-0.0000	50.6528	-4.0900	-13.1923	64.6859	-0.7671	10.7649	0.0000	-16.8927	1.5896	-1.3326	77.8409	-7.0733	31.8456	27.0504	59.4829	-33.0397	-17.0824	77.2468	8.9032	22.8031	13.8165	60.3079	-27.4491	-21.5496	
8.0990	-18.4851	6.2450	-43.4028	0.0000	1.2500	-0.0000	82.7619	-12.1817	9.4467	83.9661	16.4594	3.9362	-0.0000	52.3734	-4.2588	-12.9280	69.3078	-0.3385	10.9628	-0.0000	-16.8912	1.5130	-1.4310	77.6318	-7.1105	31.8362	27.1292	59.2658	-33.0633	-17.0788	77.2458	8.9677	22.7126	13.7370	60.5189	-27.4711	-21.5608	
8.1160	-18.3913	6.5452	-42.9492	0.0000	1.2500	-0.0000	80.4920	-12.2894	8.5655	79.6298	15.7165	4.1923	-0.0000	54.3522	-4.2223	-12.5645	73.9683	-0.1453	11.1642	0.0000	-16.8806	1.4498	-1.5689	77.4168	-7.1657	31.8104	27.1828	59.0815	-33.1023	-17.0874	77.1491	9.1398	22.7164	13.6201	60.7223	-27.4745	-21.5637	
8.1330	-18.2835	6.9097	-42.3933	0.0000	1.2500	-0.0000	77.8753	-12.4244	7.4762	75.1173	14.6845	4.3940	-0.0000	56.5689	-4.0564	-12.1124	78.6963	-0.0627	11.3532	0.0000	-16.8639	1.3842	-1.7320	77.1853	-7.2388	31.7749	27.2307	58.9011	-33.1505	-17.1024	77.0094	9.3753	22.7600	13.4707	60.9489	-27.4703	-21.5660	
8.1500	-18.2035	7.2696	-41.8385	0.0000	1.2500	-0.0000	75.1228	-12.5200	6.5074	70.6885	13.4657	4.6116	0.0000	58.8958	-3.9086	-11.6059	83.1964	0.2168	11.4508	0.0000	-16.8388	1.3111	-1.9003	76.9585	-7.3298	31.7359	27.2728	58.6849	-33.2019	-17.1218	76.9458	9.6024	22.7810	13.3054	61.2217	-27.4863	-21.5866	
8.1660	-18.1739	7.6125	-41.3377	0.0000	1.2500	-0.0000	72.2293	-12.5572	5.7552	66.3238	12.0746	4.9072	0.0000	61.3214	-3.8468	-11.0018	87.4205	0.8034	11.4253	-0.0000	-16.8023	1.2162	-2.0654	76.7663	-7.4423	31.6924	27.3010	58.4116	-33.2541	-17.1417	77.0402	9.7947	22.7262	13.1034	61.5977	-27.5395	-21.6403	
8.1830	-18.1728	7.9524	-40.8370	0.0000	1.2500	-0.0000	69.1967	-12.5693	5.1255	62.0254	10.4944	5.2387	0.0000	63.8606	-3.7937	-10.3387	91.4118	1.5835	11.3103	0.0000	-16.7575	1.1137	-2.2356	76.5783	-7.5725	31.6449	27.3234	58.1022	-33.3098	-17.1663	77.2113	9.9796	22.6483	12.8843	62.0202	-27.6128	-21.7123	
8.2000	-18.1768	8.2604	-40.2799	0.0000	1.2500	-0.0000	66.2432	-12.5980	4.6715	58.0678	8.7803	5.5133	0.0000	66.4241	-3.6910	-9.7607	95.0128	2.5290	11.1272	0.0000	-16.7105	1.0422	-2.4165	76.3253	-7.7084	31.6016	27.3647	57.7799	-33.3705	-17.2054	77.3346	10.1662	22.6431	12.7257	62.3416	-27.6828	-21.7774	
8.2160	-18.1879	8.5333	-39.5856	0.0000	1.2500	-0.0000	63.3962	-12.6870	4.4467	54.4421	6.8268	5.7010	-0.0000	69.0212	-3.4934	-9.3117	98.1916	3.7054	10.8599	0.0000	-16.6533	1.0253	-2.6261	75.9491	-7.8336	31.5651	27.4299	57.4424	-33.4459	-17.2735	77.3596	10.3788	22.7542	12.6617	62.4949	-27.7495	-21.8252	
8.2330	-18.2039	8.7746	-38.8347	0.0000	1.2500	-0.0000	60.6197	-12.8091	4.3857	51.1355	4.7393	5.8388	0.0000	71.6388	-3.2490	-8.9628	100.9835	5.0470	10.5348	0.0000	-16.5932	1.0392	-2.8465	75.5076	-7.9625	31.5327	27.5132	57.0917	-33.5263	-17.3561	77.3365	10.5925	22.9389	12.6594	62.5470	-27.8129	-21.8661	
8.2490	-18.1956	8.9642	-38.2149	0.0000	1.2500	-0.0000	58.0422	-12.9036	4.3775	48.4150	2.8901	5.9200	0.0000	74.1524	-3.0545	-8.7358	103.3329	6.3292	10.2384	0.0000	-16.5585	1.0512	-3.0290	75.1060	-8.1307	31.5048	27.6230	56.7581	-33.5834	-17.4180	77.2924	10.7425	23.1640	12.6968	62.5504	-27.8494	-21.9064	
8.2660	-18.1479	9.0874	-37.7687	0.0000	1.2500	-0.0000	55.6932	-12.9805	4.4865	46.3610	1.3099	5.9033	-0.0000	76.5730	-2.9616	-8.6323	105.2533	7.4822	10.0425	-0.0000	-16.5617	1.0618	-3.1579	74.7763	-8.3861	31.4988	27.7876	56.4315	-33.6090	-17.4478	77.2338	10.7968	23.4393	12.7789	62.5093	-27.8407	-21.9514	
8.2830	-18.0786	9.1582	-37.4538	0.0000	1.2500	-0.0000	53.5477	-13.0493	4.6727	44.8778	-0.0304	5.8182	0.0000	78.8900	-2.9380	-8.6218	106.7293	8.5768	9.8810	-0.0000	-16.5899	1.0711	-3.2487	74.4860	-8.6827	31.4963	27.9792	56.1224	-33.6111	-17.4566	77.1552	10.7872	23.7546	12.9020	62.4193	-27.8051	-21.9961	
8.3000	-18.0105	9.1993	-37.3299	0.0000	1.2500	-0.0000	51.6602	-13.0403	4.6908	43.9848	-0.8474	5.7471	0.0000	80.9495	-2.9634	-8.6559	107.6630	9.5985	9.6286	-0.0000	-16.6339	1.0447	-3.2988	74.2436	-8.9162	31.4453	28.1231	55.8926	-33.5857	-17.4436	77.0657	10.7445	24.0457	13.0296	62.3209	-27.7734	-22.0305	
8.3160	-17.9440	9.2186	-37.4970	0.0000	1.2500	-0.0000	50.0013	-12.8859	4.3407	43.6892	-0.9867	5.6960	0.0000	82.7384	-3.0779	-8.7211	108.0419	10.5740	9.1898	-0.0000	-16.6997	0.9502	-3.2941	74.0606	-9.0425	31.3121	28.1848	55.7726	-33.5153	-17.3954	76.9554	10.6661	24.3020	13.1565	62.2188	-27.7607	-22.0558	
8.3330	-17.8790	9.2093	-37.8548	0.0000	1.2500	-0.0000	48.6054	-12.6503	3.8440	43.9973	-0.6010	5.6415	-0.0000	84.2709	-3.2514	-8.8048	107.8803	11.4762	8.6606	0.0000	-16.7805	0.8195	-3.2491	73.9266	-9.1067	31.1319	28.1992	55.7317	-33.4173	-17.3252	76.8339	10.5548	24.5337	13.2873	62.1088	-27.7521	-22.0705	
8.3500	-17.8365	9.1711	-38.1632	0.0000	1.2500	-0.0000	47.6218	-12.4594	3.5792	44.9355	0.1320	5.6163	0.0000	85.4339	-3.3508	-8.8778	107.1223	12.2122	8.1935	0.0000	-16.8487	0.7155	-3.2036	73.8177	-9.1375	30.9570	28.1954	55.7397	-33.3402	-17.2722	76.7399	10.4499	24.7091	13.3989	62.0171	-27.7331	-22.0603	
8.3660	-17.8254	9.1076	-38.3173	0.0000	1.2500	-0.0000	47.1121	-12.3724	3.7026	46.5593	1.2446	5.6497	0.0000	86.2191	-3.3035	-8.9376	105.7123	12.7348	7.8070	-0.0000	-16.8942	0.6598	-3.1751	73.7155	-9.1309	30.7736	28.1780	55.8171	-33.3084	-17.2573	76.6958	10.3637	24.7909	13.4734	61.9730	-27.6922	-22.0057	
8.3830	-17.8368	9.0148	-38.4221	0.0000	1.2500	-0.0000	47.0138	-12.3349	4.0482	48.8097	2.7094	5.7153	0.0000	86.6343	-3.1763	-9.0003	103.7061	13.0936	7.4697	-0.0000	-16.9275	0.6311	-3.1460	73.6388	-9.0912	30.5956	28.1426	55.9434	-33.2976	-17.2596	76.6794	10.2842	24.8167	13.5284	61.9472	-27.6411	-21.9260	
8.4000	-17.8651	8.8827	-38.5509	0.0000	1.2500	-0.0000	47.2901	-12.3037	4.5029	51.5463	4.2566	5.7595	0.0000	86.5907	-3.0411	-9.0750	101.2152	13.3446	7.2478	0.0000	-16.9519	0.6279	-3.1037	73.6195	-9.0605	30.5155	28.1049	56.0266	-33.2835	-17.2555	76.6615	10.2149	24.8676	13.5939	61.8789	-27.6009	-21.8646	
8.4160	-17.9143	8.7083	-38.7105	0.0000	1.2500	-0.0000	47.9629	-12.2735	5.0926	54.8037	5.8593	5.7221	0.0000	86.0442	-2.9025	-9.1304	98.2207	13.5451	7.1675	-0.0000	-16.9653	0.6567	-3.0477	73.6761	-9.0670	30.6008	28.0792	56.0020	-33.2586	-17.2354	76.6387	10.1674	24.9740	13.6813	61.7448	-27.5751	-21.8388	
